# xmcd CD database file
#
# Track frame offsets:
#	182
#	18430
#	35162
#	45127
#	56927
#	71420
#	86120
#	100005
#	113535
#	128585
#	140567
#	159362
#	172477
#	182495
#
# Disc length: 2579 seconds
#
# Revision: 2
# Processed by: cddbd v1.5.2PL0 Copyright (c) Steve Scherf et al.
# Submitted via: CDex 1.51
#
DISCID=b90a110e
DTITLE=Jair Rodrigues - Minha Historia
DYEAR=1900
DGENRE=MPB
TTITLE0=Disparada
TTITLE1=Tristeza
TTITLE2=Deixa Isso Pra La
TTITLE3=Carinhoso
TTITLE4=O Conde
TTITLE5=Casa De Bamba
TTITLE6=Triste Madrugada
TTITLE7=Ronda
TTITLE8=Chão De Estrelas
TTITLE9=Mascara Negra
TTITLE10=Io E Te
TTITLE11=Foi Um Rio Que Passou Em Minha Vida
TTITLE12=Boa- Noite Amor
TTITLE13=Ave-Maria 
EXTD=
EXTT0=
EXTT1=
EXTT2=
EXTT3=
EXTT4=
EXTT5=
EXTT6=
EXTT7=
EXTT8=
EXTT9=
EXTT10=
EXTT11=
EXTT12=
EXTT13=
PLAYORDER=
